<?xml version="1.0" encoding="UTF-8"?>
<svg xmlns="http://www.w3.org/2000/svg" xmlns:xlink="http://www.w3.org/1999/xlink" width="595pt" height="842pt" viewBox="0 0 595 842" version="1.1">
<defs>
<clipPath id="clip1">
  <path d="M 252 817 L 283.464844 817 L 283.464844 842 L 252 842 Z M 252 817 "/>
</clipPath>
<clipPath id="clip2">
  <path d="M 99 738.109375 L 176 738.109375 L 176 787 L 99 787 Z M 99 738.109375 "/>
</clipPath>
</defs>
<g id="surface1">
<path style=" stroke:none;fill-rule:nonzero;fill:rgb(100%,100%,100%);fill-opacity:1;" d="M 133.230469 818.289062 L 133.230469 832.117188 L 119.953125 818.289062 L 110.117188 818.289062 L 110.117188 841.199219 L 116.53125 841.199219 L 116.53125 827.578125 L 129.84375 841.199219 L 139.671875 841.199219 L 139.671875 818.289062 L 133.230469 818.289062 "/>
<path style=" stroke:none;fill-rule:nonzero;fill:rgb(100%,100%,100%);fill-opacity:1;" d="M 48.503906 822.855469 L 53.742188 822.855469 C 56.644531 822.855469 58.242188 824.285156 58.242188 826.648438 C 58.242188 829.796875 56.777344 830.855469 52.4375 830.902344 L 58.949219 841.199219 L 69.574219 841.199219 L 62.847656 831.492188 C 63.878906 831.355469 68.332031 830.738281 68.332031 824.800781 C 68.332031 818.328125 61.871094 818.289062 57.714844 818.289062 L 38.914062 818.289062 L 38.914062 841.199219 L 48.503906 841.199219 L 48.503906 822.855469 "/>
<path style=" stroke:none;fill-rule:nonzero;fill:rgb(100%,100%,100%);fill-opacity:1;" d="M 93.59375 818.289062 L 93.59375 831.132812 C 93.59375 833.292969 93.160156 834.8125 92.265625 835.765625 C 91.457031 836.632812 90.257812 837.054688 88.578125 837.054688 C 86.902344 837.054688 85.722656 836.632812 84.90625 835.765625 C 84.007812 834.808594 83.570312 833.292969 83.570312 831.132812 L 83.570312 818.289062 L 73.84375 818.289062 L 73.84375 831.738281 C 73.84375 835.363281 74.585938 836.886719 76.144531 838.4375 C 78.566406 840.84375 83.171875 841.863281 88.582031 841.863281 C 93.988281 841.863281 98.640625 840.84375 101.0625 838.4375 C 102.621094 836.886719 103.324219 835.363281 103.324219 831.738281 L 103.324219 818.289062 L 93.59375 818.289062 "/>
<path style=" stroke:none;fill-rule:nonzero;fill:rgb(100%,100%,100%);fill-opacity:1;" d="M 161.523438 836.503906 L 156.582031 836.503906 L 156.582031 822.976562 L 161.523438 822.976562 C 166.6875 822.976562 169.09375 825.214844 169.09375 829.742188 C 169.09375 834.085938 166.476562 836.503906 161.523438 836.503906 Z M 162.554688 818.289062 L 146.921875 818.289062 L 146.921875 841.199219 L 162.558594 841.199219 C 174 841.199219 179.316406 838.742188 179.316406 829.691406 C 179.316406 820.636719 174 818.289062 162.554688 818.289062 "/>
<path style=" stroke:none;fill-rule:nonzero;fill:rgb(100%,100%,100%);fill-opacity:1;" d="M 230.964844 837.230469 C 226.042969 837.230469 223.5625 834.632812 223.5625 829.71875 C 223.5625 824.742188 225.972656 822.21875 230.964844 822.21875 C 236.003906 822.21875 238.375 824.742188 238.375 829.71875 C 238.375 834.914062 236.21875 837.230469 230.964844 837.230469 Z M 231.015625 817.609375 C 218.464844 817.609375 212.988281 822.167969 212.988281 829.617188 C 212.988281 837.878906 218.464844 841.875 231.015625 841.875 C 243.40625 841.875 248.945312 837.859375 248.945312 829.589844 C 248.945312 822.21875 243.40625 817.609375 231.015625 817.609375 "/>
<path style=" stroke:none;fill-rule:nonzero;fill:rgb(100%,100%,100%);fill-opacity:1;" d="M 194.988281 823.199219 L 208.269531 823.199219 L 211.3125 818.289062 L 185.144531 818.289062 L 185.144531 841.199219 L 194.988281 841.199219 L 194.988281 833.75 L 205.84375 833.75 L 208.941406 828.8125 L 194.988281 828.8125 L 194.988281 823.199219 "/>
<path style=" stroke:none;fill-rule:nonzero;fill:rgb(100%,100%,100%);fill-opacity:1;" d="M 22.925781 830.171875 L 22.925781 836.707031 C 22.925781 836.707031 20.144531 837.015625 18.789062 837.015625 C 11.171875 837.015625 10.351562 832.871094 10.351562 829.898438 C 10.351562 825.203125 13.390625 822.699219 19.503906 822.699219 C 23.515625 822.699219 25.636719 822.902344 28.5625 823.417969 L 29.726562 823.648438 L 32.796875 818.667969 C 26.050781 817.820312 21.785156 817.773438 18.085938 817.773438 C 5.691406 817.773438 0 821.6875 0 830.027344 C 0 838.402344 5.582031 841.746094 18.027344 841.746094 C 23.429688 841.746094 28.46875 841.332031 32.570312 840.417969 L 32.570312 830.171875 L 22.925781 830.171875 "/>
<g clip-path="url(#clip1)" clip-rule="nonzero">
<path style=" stroke:none;fill-rule:nonzero;fill:rgb(100%,100%,100%);fill-opacity:1;" d="M 272.464844 826.945312 C 267.996094 826.238281 265.132812 826.257812 265.132812 824.136719 C 265.132812 822.015625 269.644531 821.929688 272.496094 821.929688 C 274.210938 821.929688 277.589844 822.261719 280.191406 822.746094 L 283 818.277344 C 281.082031 818.019531 275.882812 817.503906 270.1875 817.503906 C 259.898438 817.503906 253.3125 819.296875 253.3125 824.289062 C 253.3125 829.574219 258.902344 830.554688 264.445312 831.449219 C 268.789062 832.152344 271.640625 832.261719 271.640625 834.332031 C 271.640625 836.667969 267.820312 836.988281 263.992188 836.988281 C 262.882812 836.988281 259.609375 836.789062 255.679688 835.976562 L 252.410156 841.203125 C 256.707031 841.660156 258.726562 842 266.597656 842 C 278.0625 842 283.464844 839.902344 283.464844 834.277344 C 283.464844 829.050781 277.804688 827.785156 272.464844 826.945312 "/>
</g>
<path style=" stroke:none;fill-rule:nonzero;fill:rgb(100%,100%,100%);fill-opacity:1;" d="M 125.15625 806.835938 L 106.707031 806.835938 C 119.714844 793.820312 132.4375 781.085938 132.4375 781.085938 C 132.4375 781.085938 133.996094 782.03125 137.339844 785.335938 C 140.726562 788.6875 141.730469 790.25 141.730469 790.25 L 125.15625 806.835938 "/>
<g clip-path="url(#clip2)" clip-rule="nonzero">
<path style=" stroke:none;fill-rule:nonzero;fill:rgb(100%,100%,100%);fill-opacity:1;" d="M 116.652344 786.839844 C 106.882812 774.9375 104.160156 769.75 101.679688 763.570312 C 100.097656 759.628906 98.132812 751.921875 102.183594 747.871094 C 105.765625 744.292969 112.8125 745.527344 119.917969 748.710938 C 128.058594 752.355469 137.445312 759.003906 146.273438 767.261719 L 175.433594 738.109375 L 175.433594 756.523438 L 148.761719 783.21875 C 148.761719 783.21875 145.867188 780.203125 144.386719 778.742188 C 128.71875 763.328125 114.183594 755.851562 110.558594 759.414062 C 105.710938 764.1875 120.664062 781.542969 121.1875 782.3125 L 116.652344 786.839844 "/>
</g>
<path style=" stroke:none;fill-rule:nonzero;fill:rgb(100%,100%,100%);fill-opacity:1;" d="M 175.433594 806.835938 L 165.050781 806.835938 C 165.050781 806.835938 163.847656 803.410156 160.195312 797.699219 C 156.59375 792.066406 153.308594 788.851562 153.308594 788.851562 L 160.308594 781.859375 C 163.132812 785.246094 166.136719 789.203125 168.902344 793.636719 C 171.472656 797.746094 173.859375 802.160156 175.433594 806.835938 "/>
</g>
</svg>
